PathFileType	4	(X/Y/Z)	D:\TRACE\spotREDO_2-26-24\spot_justBody_Motion_2_3-platform.trc
DataRate	CameraRate	NumFrames	NumMarkers	Units	OrigDataRate	OrigDataStartFrame	OrigNumFrames
100.00	100.00	      48	5	mm	100.00	4376	      7000
Frame#	Time	Left_Front			Right_Front			Left_Aft			Right_Aft			Post			
		X1	Y1	Z1	X2	Y2	Z2	X3	Y3	Z3	X4	Y4	Z4	X5	Y5	Z5	

4376	43.750	-661.88275	6.76468	-572.88007	752.69836	14.41698	-488.41367	-732.93988	-6.02119	646.14502	837.20294	1.54278	649.22412	47.47723	641.01575	-968.30878	
4377	43.760	-660.82855	7.98144	-572.41376	754.03021	15.58793	-487.79715	-732.00916	-7.49852	646.51654	838.01593	-0.00666	649.43225	48.08491	643.30920	-966.34253	
4378	43.770	-660.20691	9.52967	-572.09692	754.72156	16.90162	-487.47632	-731.04010	-9.13021	646.94012	838.85248	-1.09199	650.02740	49.30716	645.56348	-964.31610	
4379	43.780	-659.31750	10.70949	-571.63690	755.65662	17.95817	-487.01123	-730.02094	-9.99169	647.12000	839.50665	-2.67397	650.40680	50.06021	647.97888	-962.55713	
4380	43.790	-658.49329	12.21073	-571.26697	756.65515	18.97050	-486.82867	-729.47809	-11.57476	647.46405	841.00543	-4.17267	650.28644	50.89708	650.07410	-960.63934	
4381	43.800	-657.49927	13.42611	-570.94141	757.48358	20.43346	-486.29245	-728.50977	-13.32905	647.79083	841.86206	-5.85190	650.99414	51.79319	652.31848	-958.85559	
4382	43.810	-656.58136	14.88170	-570.43091	757.92767	21.47653	-486.11215	-727.77490	-14.53158	648.17438	842.61389	-7.11780	651.14899	52.48446	654.56818	-957.19666	
4383	43.820	-655.78571	16.14172	-569.98798	758.87701	22.60740	-485.56604	-727.00781	-16.23764	648.43445	843.36334	-8.59348	651.50842	53.40273	656.80957	-955.33026	
4384	43.830	-655.13641	17.40213	-569.66223	759.57037	23.59617	-485.08908	-726.00830	-17.27996	648.85950	844.02942	-9.76348	651.56769	53.84934	658.96301	-953.90601	
4385	43.840	-654.53149	18.95070	-569.28839	760.34607	25.13440	-484.86670	-725.38049	-18.29359	649.09094	844.53046	-11.35383	652.05951	54.89697	661.16101	-952.13446	
4386	43.850	-653.63080	20.06796	-568.94318	761.18262	25.92648	-484.49722	-724.57996	-20.08954	649.46863	845.61499	-12.30402	652.24213	55.68864	663.20337	-950.23242	
4387	43.860	-653.09729	21.55925	-568.46375	761.76062	27.19534	-484.10309	-723.73303	-21.49428	649.72485	846.51282	-14.15877	652.89050	56.49780	665.58337	-948.23553	
4388	43.870	-652.44348	22.39744	-568.10712	762.35260	28.03624	-483.76834	-723.22455	-22.86055	649.98822	847.11066	-15.31136	652.86646	56.87716	667.56824	-946.42316	
4389	43.880	-651.70612	23.94127	-567.75183	763.33765	29.28674	-483.42288	-722.58484	-24.17901	650.29608	847.54492	-16.58188	653.18304	57.50523	669.58667	-944.75336	
4390	43.890	-650.91797	25.19851	-567.40210	763.83868	30.26665	-482.99234	-721.91241	-25.22434	650.44879	848.07361	-17.76467	653.38495	58.10776	671.58868	-942.70172	
4391	43.900	-650.45160	26.18873	-566.91937	764.30847	31.55432	-482.67664	-721.26453	-26.64835	650.93329	849.03479	-19.34037	653.94269	58.53225	673.56805	-941.04529	
4392	43.910	-649.86902	27.40938	-566.50519	764.68713	32.53832	-482.44559	-720.71826	-27.95229	650.98883	849.73547	-20.03372	654.07178	59.29214	675.51251	-939.25861	
4393	43.920	-649.25330	28.62326	-566.14795	765.26923	33.61988	-481.72723	-720.19391	-28.98137	651.25403	849.86194	-21.63861	654.55688	59.73760	677.43457	-937.52191	
4394	43.930	-649.17871	29.67493	-565.98059	765.80505	34.59266	-481.62369	-719.78802	-30.68935	651.53693	850.45020	-22.85749	654.36957	60.43456	679.21222	-935.81128	
4395	43.940	-648.47662	31.02552	-565.59052	766.31775	35.25009	-481.09955	-719.33051	-31.46562	651.79224	850.86096	-24.09691	655.00500	60.70352	681.02844	-934.58197	
4396	43.950	-648.12555	32.08406	-565.16571	766.72168	36.41377	-480.75253	-718.74420	-32.76219	652.15259	851.19055	-25.28930	655.03497	61.09451	682.84357	-932.95215	
4397	43.960	-647.71661	33.17307	-564.80560	766.89655	37.43255	-480.48618	-718.47845	-33.64322	652.41583	851.70667	-26.36767	655.17944	61.52901	684.67493	-931.65356	
4398	43.970	-647.25006	34.05993	-564.48077	767.04315	38.10729	-480.16086	-718.24133	-34.99635	652.60028	852.01959	-27.46627	655.42822	61.71078	686.36395	-930.15393	
4399	43.980	-647.33160	35.28236	-564.11652	767.42737	39.13763	-479.84979	-717.83295	-36.13467	652.80432	852.20300	-28.81468	655.52356	62.23159	688.07117	-928.46875	
4400	43.990	-647.03363	36.20214	-563.78534	767.75531	39.79592	-479.43109	-717.85553	-37.34416	652.94910	852.37964	-29.82921	656.00702	62.25000	689.55786	-927.37079	
4401	44.000	-646.95868	37.01223	-563.54340	767.98682	40.66692	-479.23404	-717.41315	-38.25601	653.19171	852.76709	-30.23853	656.28705	62.38107	691.15393	-925.83569	
4402	44.010	-646.77905	38.21960	-563.08813	767.99933	41.64288	-478.91840	-717.30518	-39.26006	653.35468	852.87372	-31.61031	656.54504	62.27233	692.64514	-924.47192	
4403	44.020	-646.54858	38.90307	-562.82233	768.12537	42.37504	-478.64270	-717.37018	-40.07885	653.58960	852.54169	-32.86572	656.34943	62.57976	694.23395	-922.97131	
4404	44.030	-646.78589	39.86687	-562.50116	768.03094	43.00005	-478.37344	-717.25708	-41.06260	653.73242	852.82697	-33.35700	656.51105	62.60970	695.56946	-921.56506	
4405	44.040	-646.54419	40.72159	-562.33832	768.05981	43.61086	-478.03281	-717.23541	-42.13853	654.00281	853.05157	-34.68833	656.86786	62.36827	697.13489	-920.29382	
4406	44.050	-646.50098	41.48165	-562.01331	768.08807	44.70406	-477.89438	-717.34082	-42.90837	654.08466	852.69995	-35.40125	656.95612	62.15415	698.27972	-919.16833	
4407	44.060	-646.68036	42.16559	-561.77747	768.16705	45.25600	-477.51129	-717.18402	-43.75599	654.23926	852.87653	-36.21371	657.20917	62.42146	699.66266	-917.77789	
4408	44.070	-646.78168	43.37952	-561.56464	768.04810	46.00139	-477.30441	-717.21136	-44.75192	654.53229	852.87311	-37.15820	657.42126	62.47466	700.89020	-916.86871	
4409	44.080	-646.54517	43.83084	-561.25226	767.92853	46.69417	-477.04434	-717.28888	-45.28299	654.57233	852.70740	-38.01773	657.39502	62.25114	702.23590	-915.90314	
4410	44.090	-646.84326	44.52554	-561.05389	767.75623	47.18053	-476.69162	-717.55676	-46.22747	654.59436	852.63080	-38.77355	657.51489	62.13656	703.27441	-914.79657	
4411	44.100	-647.32471	45.34972	-560.54816	767.34210	47.91758	-476.36386	-717.68854	-47.25393	654.81628	852.42737	-39.90469	657.66168	61.95366	704.35590	-913.89197	
4412	44.110	-647.60541	46.06208	-560.39111	767.15894	48.30633	-476.10928	-718.05719	-47.79713	654.87872	852.16479	-40.51281	657.60516	61.50814	705.48419	-912.83093	
4413	44.120	-647.83417	46.60966	-560.24335	766.70923	49.05718	-476.00143	-718.54907	-48.34362	654.93958	851.74103	-40.96913	657.86273	61.41415	706.53992	-911.86053	
4414	44.130	-648.29126	47.40885	-560.14008	766.44287	49.60173	-475.92075	-718.73071	-49.02048	655.11963	851.27789	-41.54699	658.02832	60.56608	707.51666	-911.03198	
4415	44.140	-648.70856	48.04504	-559.91028	766.17529	49.96475	-475.73215	-719.03223	-49.70960	655.33392	850.92572	-42.40686	657.99457	60.33986	708.38922	-909.96881	
4416	44.150	-648.80817	48.25869	-559.77203	765.92029	50.33284	-475.56088	-719.54382	-50.25183	655.48285	850.53125	-42.98735	658.14380	60.16185	709.09851	-909.15796	
4417	44.160	-648.99719	48.49121	-559.68329	765.42804	50.64982	-475.36508	-719.81879	-50.60675	655.44836	850.44238	-43.35533	658.25635	59.64236	709.88190	-908.14417	
4418	44.170	-649.74786	49.15131	-559.40155	764.93176	50.91000	-475.12268	-720.31677	-51.06568	655.53912	850.17902	-43.87776	658.21454	59.30909	710.54510	-907.45807	
4419	44.180	-650.42151	49.80999	-559.11304	764.49518	51.48569	-474.98199	-720.84558	-51.45853	655.65961	849.44513	-44.30304	658.22968	59.01535	711.36230	-906.90051	
4420	44.190	-650.71167	50.11527	-558.97864	764.20074	51.90432	-474.87881	-721.11060	-52.01345	655.73071	848.88831	-44.81973	658.50354	58.54948	711.92651	-906.51532	
4421	44.200	-651.16852	50.30187	-558.90216	763.74915	52.18718	-474.66827	-721.57977	-52.58540	655.87018	848.45923	-45.14160	658.69543	57.81841	712.63257	-906.11414	
4422	44.210	-651.58539	50.64810	-558.76239	763.20001	52.25717	-474.53116	-721.99683	-53.08546	655.91864	847.97699	-45.63317	658.83142	57.26507	713.08539	-905.78113	
4423	44.220	-651.98334	51.07156	-558.75104	762.74994	52.67493	-474.42212	-722.36499	-53.36444	655.87286	847.78271	-45.94344	658.63446	56.89618	713.65533	-905.29633	
